<?xml version="1.0" encoding="utf-8"?>
<!-- Generator: Adobe Illustrator 25.2.0, SVG Export Plug-In . SVG Version: 6.00 Build 0)  -->
<svg version="1.1" id="Layer_1" xmlns="http://www.w3.org/2000/svg" xmlns:xlink="http://www.w3.org/1999/xlink" x="0px" y="0px"
	 viewBox="0 0 841.9 595.3" style="enable-background:new 0 0 841.9 595.3;" xml:space="preserve">
<style type="text/css">
	.st0{fill:url(#SVGID_1_);}
	.st1{fill:#201B59;}
	.st2{font-family:'NiveauGroteskBold';}
	.st3{font-size:86.3296px;}
</style>
<linearGradient id="SVGID_1_" gradientUnits="userSpaceOnUse" x1="113.1859" y1="278.3349" x2="245.7832" y2="278.3349">
	<stop  offset="1.440276e-03" style="stop-color:#34C8FF"/>
	<stop  offset="1" style="stop-color:#935CFF"/>
</linearGradient>
<path class="st0" d="M220.3,226.1v45.9h-14.5c-2.9-10.2-12.4-17.7-23.5-17.7c-13.5,0-24.5,11-24.5,24.5c0,13.5,11,24.5,24.5,24.5
	c11.2,0,20.6-7.5,23.5-17.7h13.9c-3.2,17.7-18.7,31.3-37.4,31.3c-20.9,0-38-17-38-38c0-20.9,17-38,38-38c9.3,0,17.9,3.4,24.5,9V218
	c-8.3-3.8-17.6-5.9-27.4-5.9c-36.6,0-66.3,29.7-66.3,66.3c0,36.6,29.7,66.3,66.3,66.3c36.6,0,66.3-29.7,66.3-66.3
	C245.8,257.1,235.8,238.2,220.3,226.1z"/>
<text transform="matrix(1 0 0 1 262.2596 300.6574)" class="st1 st2 st3">donkey clip</text>
</svg>
